<svg width="60" height="60" viewBox="0 0 60 60" fill="none" xmlns="http://www.w3.org/2000/svg">
<rect width="60" height="60" rx="30" fill="#FFF1F2"/>
<path d="M29.9999 36.6667C28.6738 36.6667 27.4021 36.1399 26.4644 35.2022C25.5267 34.2645 24.9999 32.9927 24.9999 31.6667C24.9999 29.8 26.0166 28.1667 27.4999 27.3167L43.6833 17.95L34.4666 33.9167C33.6333 35.55 31.9499 36.6667 29.9999 36.6667ZM29.9999 15C33.0166 15 35.8333 15.8333 38.2833 17.2L34.7833 19.2167C33.3333 18.65 31.6666 18.3333 29.9999 18.3333C26.4637 18.3333 23.0723 19.7381 20.5718 22.2386C18.0714 24.7391 16.6666 28.1304 16.6666 31.6667C16.6666 35.35 18.1499 38.6833 20.5666 41.0833H20.5833C21.2333 41.7333 21.2333 42.7833 20.5833 43.4333C19.9333 44.0833 18.8666 44.0833 18.2166 43.45C16.6666 41.9044 15.4373 40.0677 14.5993 38.0456C13.7612 36.0234 13.331 33.8556 13.3333 31.6667C13.3333 27.2464 15.0892 23.0072 18.2148 19.8816C21.3404 16.7559 25.5797 15 29.9999 15ZM46.6666 31.6667C46.6666 36.2667 44.7999 40.4333 41.7833 43.45C41.1333 44.0833 40.0833 44.0833 39.4333 43.4333C39.2788 43.2791 39.1562 43.096 39.0725 42.8944C38.9889 42.6928 38.9459 42.4766 38.9459 42.2583C38.9459 42.0401 38.9889 41.8239 39.0725 41.6223C39.1562 41.4207 39.2788 41.2375 39.4333 41.0833C40.6728 39.8489 41.6556 38.3812 42.3249 36.765C42.9943 35.1488 43.337 33.416 43.3333 31.6667C43.3333 30 43.0166 28.3333 42.4333 26.8333L44.4499 23.3333C45.8333 25.8333 46.6666 28.6333 46.6666 31.6667Z" fill="#ED1C24"/>
</svg>
