<svg width="32" height="33" viewBox="0 0 32 33" fill="none" xmlns="http://www.w3.org/2000/svg">
<rect y="0.5" width="32" height="32" rx="4" fill="#ED1C24"/>
<path d="M16.8333 10.6667C16.8333 10.2064 16.4602 9.83334 16 9.83334C15.5398 9.83334 15.1667 10.2064 15.1667 10.6667V15.6667H10.1667C9.70643 15.6667 9.33333 16.0398 9.33333 16.5C9.33333 16.9602 9.70643 17.3333 10.1667 17.3333H15.1667V22.3333C15.1667 22.7936 15.5398 23.1667 16 23.1667C16.4602 23.1667 16.8333 22.7936 16.8333 22.3333V17.3333H21.8333C22.2936 17.3333 22.6667 16.9602 22.6667 16.5C22.6667 16.0398 22.2936 15.6667 21.8333 15.6667H16.8333V10.6667Z" fill="white"/>
</svg>
