<svg width="14" height="15" viewBox="0 0 14 15" fill="none" xmlns="http://www.w3.org/2000/svg">
<path d="M7.83333 1.66667C7.83333 1.20643 7.46024 0.833336 7 0.833336C6.53976 0.833336 6.16667 1.20643 6.16667 1.66667V6.66667H1.16667C0.706429 6.66667 0.333333 7.03977 0.333333 7.5C0.333333 7.96024 0.706429 8.33334 1.16667 8.33334H6.16667V13.3333C6.16667 13.7936 6.53976 14.1667 7 14.1667C7.46024 14.1667 7.83333 13.7936 7.83333 13.3333V8.33334H12.8333C13.2936 8.33334 13.6667 7.96024 13.6667 7.5C13.6667 7.03977 13.2936 6.66667 12.8333 6.66667H7.83333V1.66667Z" fill="white"/>
</svg>
