<svg width="60" height="60" viewBox="0 0 60 60" fill="none" xmlns="http://www.w3.org/2000/svg">
<rect width="60" height="60" rx="30" fill="#FFF1F2"/>
<path d="M26.6667 18.3333L30 15M23.3333 36.6667L36.6667 23.3333M30 45L33.3333 41.6667M37.5 41.6667C38.6051 41.6667 39.6649 41.2277 40.4463 40.4463C41.2277 39.6649 41.6667 38.6051 41.6667 37.5C41.6667 36.3949 41.2277 35.3351 40.4463 34.5537C39.6649 33.7723 38.6051 33.3333 37.5 33.3333C36.3949 33.3333 35.3351 33.7723 34.5537 34.5537C33.7723 35.3351 33.3333 36.3949 33.3333 37.5C33.3333 38.6051 33.7723 39.6649 34.5537 40.4463C35.3351 41.2277 36.3949 41.6667 37.5 41.6667ZM22.5 26.6667C23.6051 26.6667 24.6649 26.2277 25.4463 25.4463C26.2277 24.6649 26.6667 23.6051 26.6667 22.5C26.6667 21.3949 26.2277 20.3351 25.4463 19.5537C24.6649 18.7723 23.6051 18.3333 22.5 18.3333C21.3949 18.3333 20.3351 18.7723 19.5537 19.5537C18.7723 20.3351 18.3333 21.3949 18.3333 22.5C18.3333 23.6051 18.7723 24.6649 19.5537 25.4463C20.3351 26.2277 21.3949 26.6667 22.5 26.6667ZM19.1667 45C20.2717 45 21.3315 44.561 22.1129 43.7796C22.8943 42.9982 23.3333 41.9384 23.3333 40.8333C23.3333 39.7283 22.8943 38.6685 22.1129 37.8871C21.3315 37.1057 20.2717 36.6667 19.1667 36.6667C18.0616 36.6667 17.0018 37.1057 16.2204 37.8871C15.439 38.6685 15 39.7283 15 40.8333C15 41.9384 15.439 42.9982 16.2204 43.7796C17.0018 44.561 18.0616 45 19.1667 45ZM40.8333 23.3333C41.9384 23.3333 42.9982 22.8943 43.7796 22.1129C44.561 21.3315 45 20.2717 45 19.1667C45 18.0616 44.561 17.0018 43.7796 16.2204C42.9982 15.439 41.9384 15 40.8333 15C39.7283 15 38.6685 15.439 37.8871 16.2204C37.1057 17.0018 36.6667 18.0616 36.6667 19.1667C36.6667 20.2717 37.1057 21.3315 37.8871 22.1129C38.6685 22.8943 39.7283 23.3333 40.8333 23.3333Z" stroke="#ED1C24" stroke-width="2" stroke-linecap="round" stroke-linejoin="round"/>
</svg>
