<svg width="60" height="60" viewBox="0 0 60 60" fill="none" xmlns="http://www.w3.org/2000/svg">
<rect width="60" height="60" rx="30" fill="#FFF1F2"/>
<path d="M18.3333 36.6667L26.6666 31.6667M33.3333 28.3333L41.6666 23.3333M29.9999 18.3333V26.6667M29.9999 33.3333V41.6667M18.3333 23.3333L26.6666 28.3333M33.3333 31.6667L41.6666 36.6667M44.1666 25V34.1667M32.4999 44.1667L41.6666 39.1667M17.4999 39.1667L27.4999 44.1667M15.8333 35V25M17.4999 20.8333L27.4999 15.8333M42.4999 20.8333L32.4999 15.8333" stroke="#ED1C24" stroke-width="2" stroke-linecap="round" stroke-linejoin="round"/>
<path d="M30 18.3333C31.3807 18.3333 32.5 17.2141 32.5 15.8333C32.5 14.4526 31.3807 13.3333 30 13.3333C28.6193 13.3333 27.5 14.4526 27.5 15.8333C27.5 17.2141 28.6193 18.3333 30 18.3333Z" stroke="#ED1C24" stroke-width="2" stroke-linecap="round" stroke-linejoin="round"/>
<path d="M30 46.6667C31.3807 46.6667 32.5 45.5474 32.5 44.1667C32.5 42.786 31.3807 41.6667 30 41.6667C28.6193 41.6667 27.5 42.786 27.5 44.1667C27.5 45.5474 28.6193 46.6667 30 46.6667Z" stroke="#ED1C24" stroke-width="2" stroke-linecap="round" stroke-linejoin="round"/>
<path d="M15.8333 25C17.214 25 18.3333 23.8807 18.3333 22.5C18.3333 21.1193 17.214 20 15.8333 20C14.4525 20 13.3333 21.1193 13.3333 22.5C13.3333 23.8807 14.4525 25 15.8333 25Z" stroke="#ED1C24" stroke-width="2" stroke-linecap="round" stroke-linejoin="round"/>
<path d="M44.1665 25C45.5472 25 46.6665 23.8807 46.6665 22.5C46.6665 21.1193 45.5472 20 44.1665 20C42.7858 20 41.6665 21.1193 41.6665 22.5C41.6665 23.8807 42.7858 25 44.1665 25Z" stroke="#ED1C24" stroke-width="2" stroke-linecap="round" stroke-linejoin="round"/>
<path d="M44.1665 40C45.5472 40 46.6665 38.8807 46.6665 37.5C46.6665 36.1193 45.5472 35 44.1665 35C42.7858 35 41.6665 36.1193 41.6665 37.5C41.6665 38.8807 42.7858 40 44.1665 40Z" stroke="#ED1C24" stroke-width="2" stroke-linecap="round" stroke-linejoin="round"/>
<path d="M15.8333 40C17.214 40 18.3333 38.8807 18.3333 37.5C18.3333 36.1193 17.214 35 15.8333 35C14.4525 35 13.3333 36.1193 13.3333 37.5C13.3333 38.8807 14.4525 40 15.8333 40Z" stroke="#ED1C24" stroke-width="2" stroke-linecap="round" stroke-linejoin="round"/>
<path d="M29.9998 26.25L33.3332 28.125V31.875L29.9998 33.75L26.6665 31.875V28.125L29.9998 26.25Z" stroke="#ED1C24" stroke-width="2" stroke-linecap="round" stroke-linejoin="round"/>
</svg>
